<svg width="490" height="207" viewBox="0 0 490 207" fill="none" xmlns="http://www.w3.org/2000/svg">
<g clip-path="url(#clip0_1025_578)">
<path d="M226.858 100.132L226.453 96.7436C231.882 94.5796 232.834 91.5956 233.239 85.6286C233.644 81.1586 233.644 75.1906 233.644 70.4466V34.4116C233.644 29.6686 233.644 23.7006 233.239 19.2306C232.834 13.2626 231.882 10.2906 226.453 8.11557L226.858 4.72656C232.155 5.13156 235.811 5.13156 239.204 5.13156H264.169C269.729 5.13156 273.943 5.13156 279.229 4.72656C280.181 11.6346 280.718 16.6516 281.133 24.1056L277.193 24.7826C275.431 19.7666 273.932 16.9246 271.896 14.7496C269.86 12.5746 266.741 11.4926 264.158 11.0876C260.765 10.5416 257.777 10.4106 252.491 10.4106C246.11 10.4106 245.3 11.4926 244.895 16.9136C244.49 21.1106 244.49 25.9966 244.49 30.8706V48.2166C249.109 48.2166 258.609 47.9426 262.943 47.5386C269.05 46.8606 270.955 44.6966 272.99 38.4556L276.252 39.1336C275.847 44.4236 275.847 47.3966 275.847 50.7846C275.847 54.1726 275.847 57.2876 276.252 62.5776L272.99 63.2556C270.955 57.0256 269.05 54.9926 262.943 54.1726C258.598 53.6266 248.967 53.4956 244.49 53.4956V71.7916C244.49 76.5346 244.764 83.8576 244.895 86.5686C245.169 93.2136 247.478 94.4266 253.585 94.4266C259.693 94.4266 264.311 94.2956 267.967 93.7496C272.717 93.0716 274.884 91.1696 276.92 88.3276C278.55 85.7486 279.908 82.9066 281.67 77.8906L285.336 78.5676C284.658 86.6996 283.574 93.3446 282.075 100.384C272.17 99.8366 259.824 99.7056 242.444 99.7056C235.789 99.7056 232.133 99.7056 226.836 100.111L226.858 100.132Z" fill="white"/>
<path d="M301.592 57.7136C303.496 52.5656 303.901 49.9866 303.901 48.6306C303.901 47.8226 303.496 47.4066 302.818 47.4066C301.461 47.4066 298.746 49.5706 292.508 56.8936L289.925 54.5876C297.663 43.3406 303.223 38.1936 307.699 38.1936C310.545 38.1936 313.128 40.7726 313.128 44.8386C313.128 49.1776 310.961 55.1346 308.925 60.6976L300.103 85.6276C298.615 89.6936 298.341 90.7756 298.341 91.3226C298.341 91.9996 298.889 92.6776 299.698 92.6776C301.187 92.6776 303.901 91.1916 310.556 81.7046L313.27 83.6056C306.079 97.5636 299.83 101.356 295.08 101.356C291.961 101.356 289.246 98.6456 289.246 95.1256C289.246 92.0106 290.198 89.0266 293.449 80.2176L301.592 57.7246V57.7136ZM312.044 0.933594C316.116 0.933594 319.235 4.04859 319.235 8.11459C319.235 12.1806 316.116 15.2956 312.044 15.2956C307.973 15.2956 304.854 12.1806 304.854 8.11459C304.854 4.04859 307.973 0.933594 312.044 0.933594Z" fill="white"/>
<path d="M363.515 14.1335C366.777 17.7955 367.991 22.3965 367.991 27.4135C367.991 40.6925 358.218 50.1795 346.277 50.1795C340.17 50.1795 335.693 48.4205 331.753 45.1625C327.55 48.4205 326.598 51.5345 326.598 54.6495C326.598 58.5845 329.717 61.1535 335.825 61.4265L352.242 61.9725C365.408 62.3775 371.778 70.2355 371.778 80.4005C371.778 92.5975 359.695 103.297 340.837 103.297C325.504 103.297 317.766 96.5215 317.766 87.3075C317.766 80.9355 320.885 75.9195 328.623 70.6405C322.789 68.6075 318.849 64.1365 318.849 57.7645C318.849 52.4745 321.29 47.0535 328.218 41.7745C325.099 37.5775 323.599 33.2385 323.599 27.4135C323.599 14.6695 333.778 4.64648 345.719 4.64648C353.588 4.64648 355.624 7.35748 363.362 7.35748C366.755 7.35748 371.505 7.22649 376.255 6.81049L377.338 9.11649L376.255 14.1335H363.493H363.515ZM349.812 72.2685C343.705 72.2685 338.823 72.2685 333.253 71.8645C328.502 76.3345 326.598 80.8045 326.598 85.0125C326.598 90.8385 331.622 95.7235 343.015 95.7235C358.623 95.7235 364.325 89.0785 364.325 82.7175C364.325 76.3565 359.98 72.2795 349.801 72.2795L349.812 72.2685ZM334.073 26.5935C334.073 38.5175 338.692 44.7585 346.288 44.7585C353.347 44.7585 357.692 40.0155 357.692 28.0905C357.692 16.8445 352.942 10.0675 345.478 10.0675C338.823 10.0675 334.073 15.2155 334.073 26.6045V26.5935Z" fill="white"/>
<path d="M403.53 39.3926C416.554 39.3926 426.47 49.0106 426.47 62.0286C426.47 63.1106 426.47 64.0616 426.196 65.1436H384.398C384.124 66.7716 384.124 68.2586 384.124 70.2906C384.124 84.2486 392.541 93.7356 403.398 93.7356C412.088 93.7356 417.375 90.7516 422.935 82.7616L426.196 84.7946C422.125 94.9596 414.113 103.365 402.041 103.365C385.077 103.365 373.814 89.0026 373.814 72.4656C373.814 53.6236 386.707 39.4036 403.53 39.4036V39.3926ZM414.518 59.7216C414.387 50.5086 408.137 45.4916 400.542 45.4916C392.267 45.4916 386.97 51.7216 385.339 59.7216H414.518Z" fill="white"/>
<path d="M482.786 39.2456C482.786 43.4426 482.786 48.1856 483.06 52.3936C483.465 57.9456 484.286 60.1206 489.298 62.1536L488.893 65.2686C484.143 64.8646 481.156 64.8646 478.036 64.8646C474.917 64.8646 471.929 64.8646 467.179 65.2686L466.774 62.1536C471.798 60.1206 472.476 57.9566 472.881 52.3936C473.286 48.1966 473.286 43.4526 473.286 39.2456V24.8836C473.286 17.2986 468.667 12.1396 461.477 12.1396C452.108 12.1396 446.274 18.5116 446.274 27.1786V39.2456C446.274 43.4426 446.274 48.1856 446.548 52.3936C446.953 57.9456 447.774 60.1206 452.787 62.1536L452.382 65.2686C447.632 64.8646 444.644 64.8646 441.524 64.8646C438.405 64.8646 435.417 64.8646 430.667 65.2686L430.262 62.1536C435.286 60.1206 435.964 57.9566 436.369 52.3936C436.774 48.1966 436.774 43.4526 436.774 39.2456V35.8566C436.774 31.6596 436.774 27.3206 436.369 23.1126C435.964 17.5606 434.607 16.3366 429.715 15.3856V12.5436C435.953 9.56064 439.346 7.39564 444.096 3.05664L446.942 4.13864C446.537 8.47864 446.263 12.1396 446.132 15.5276L446.263 15.6586C449.93 8.75165 456.311 3.33064 464.454 3.33064C471.108 3.33064 476.668 6.44564 479.93 11.7356C481.692 14.8506 482.775 18.2386 482.775 23.6596V39.2456H482.786Z" fill="white"/>
<path d="M244.49 175.703C244.49 180.446 244.622 187.769 244.895 190.48C245.574 197.125 247.478 198.338 253.585 198.338C259.693 198.338 263.49 198.338 267.431 197.661C272.312 196.71 274.895 194.546 276.931 191.431C278.693 188.851 280.192 185.736 281.954 180.457L285.894 181.135C285.216 189.813 283.99 196.721 282.502 204.306C271.776 203.759 259.835 203.628 242.465 203.628C235.811 203.628 232.155 203.628 226.858 204.033L226.453 200.645C231.882 198.48 232.834 195.497 233.239 189.529C233.644 185.059 233.644 179.091 233.644 174.348V138.302C233.644 133.558 233.644 127.591 233.239 123.12C232.834 117.153 231.882 114.18 226.453 112.005L226.858 108.617C232.155 109.021 235.811 109.021 238.941 109.021C242.334 109.021 246.001 109.021 251.287 108.617L251.692 112.005C246.263 114.169 245.311 117.153 244.906 123.12C244.501 127.591 244.501 133.558 244.501 138.302V175.703H244.49Z" fill="white"/>
<path d="M292.588 152.115C295.171 147.372 301.957 142.355 309.958 142.355C316.612 142.355 321.767 144.661 325.018 149.405C327.185 152.52 329.089 157.941 329.089 164.039V177.046C329.089 181.243 329.089 185.177 329.363 189.374C329.637 193.845 331.804 197.233 336.149 199.266L334.387 204.687C325.018 204.282 321.494 200.217 320.268 194.118H319.994C316.328 202.381 310.363 205.769 304.256 205.769C295.565 205.769 290.137 200.075 290.137 192.894C290.137 186.522 293.398 182.729 298.685 179.341C303.708 176.084 312.661 172.838 319.578 171.078V164.433C319.578 160.236 318.495 156.979 316.733 154.673C314.697 151.962 311.173 150.88 308.185 150.88C303.566 150.88 299.768 152.782 295.16 156.432L292.577 152.093L292.588 152.115ZM319.589 175.833C316.744 176.783 314.292 177.865 311.72 178.948C302.493 182.882 299.779 186.948 299.779 190.599C299.779 194.249 301.815 197.506 306.565 197.506C312.125 197.506 319.589 192.631 319.589 183.276V175.822V175.833Z" fill="white"/>
<path d="M374.603 155.211L383.556 134.204C387.222 125.668 387.759 122.553 387.759 119.974C387.759 117.132 387.08 114.957 383.009 112.793L383.556 109.678C387.496 110.083 389.794 110.083 392.782 110.083C395.77 110.083 397.664 110.083 401.604 109.678L402.009 112.793C399.568 114.957 398.069 117.406 395.497 122.553C393.461 126.619 391.83 130.685 390.199 134.347L366.175 188.558C363.592 194.383 361.02 198.591 358.306 201.433C355.997 203.739 352.33 205.772 347.996 205.772C344.33 205.772 341.615 203.335 341.615 200.078C341.615 197.094 343.651 194.525 346.77 194.525C349.353 194.525 350.294 195.203 352.746 195.203C355.592 195.203 357.627 193.039 359.663 188.7L369.437 167.562L355.997 134.357C354.508 130.565 352.735 125.548 350.568 120.673C348.532 116.203 347.58 114.979 344.33 112.815L344.877 109.7C348.817 109.973 352.888 110.105 355.865 110.105C358.842 110.105 361.294 109.973 365.234 109.7L365.639 112.815C362.651 114.17 361.568 116.072 361.568 118.236C361.568 121.351 362.115 123.931 366.186 134.095L374.603 155.233V155.211Z" fill="white"/>
<path d="M415.388 142.094C428.413 142.094 438.318 151.712 438.318 164.73C438.318 165.812 438.318 166.763 438.044 167.845H396.246C395.972 169.473 395.972 170.96 395.972 172.993C395.972 186.95 404.389 196.437 415.246 196.437C423.936 196.437 429.222 193.453 434.782 185.463L438.044 187.496C433.973 197.661 425.961 206.066 413.889 206.066C396.924 206.066 385.662 191.704 385.662 175.168C385.662 156.325 398.555 142.105 415.377 142.105L415.388 142.094ZM426.377 162.424C426.245 153.21 419.996 148.193 412.4 148.193C404.126 148.193 398.829 154.423 397.198 162.424H426.377Z" fill="white"/>
<path d="M476.249 151.39C469.868 151.39 464.581 158.845 464.581 171.851V178.223C464.581 182.42 464.582 187.163 464.856 191.371C465.261 196.923 466.486 199.372 472.451 201.131L472.046 204.246C467.296 203.842 462.95 203.842 459.831 203.842C456.712 203.842 453.724 203.842 448.974 204.246L448.57 201.131C453.593 199.098 454.272 196.934 454.677 191.371C455.082 187.174 455.081 182.431 455.081 178.223V174.835C455.081 170.638 455.082 166.299 454.677 162.091C454.272 156.538 452.914 155.314 448.021 154.363V151.522C454.26 148.538 457.654 146.374 462.404 142.035L465.25 143.117C464.845 147.456 464.571 152.877 464.44 156.265L464.57 156.396C468.237 147.456 474.476 142.297 480.857 142.297C486.417 142.297 489.547 145.412 489.547 149.073C489.547 152.735 487.511 153.817 484.666 153.817C481.141 153.817 479.511 151.38 476.249 151.38V151.39Z" fill="white"/>
<path d="M101.453 28.9336V3.93359L76.4531 3.93359V28.9336H101.453Z" fill="white"/>
<path d="M50.4531 103.934L50.4531 3.93359L0.453125 3.93359L0.453125 103.934H50.4531Z" fill="white"/>
<path d="M50.4531 203.934L50.4531 103.934H0.45314L0.45314 203.934H50.4531Z" fill="white"/>
<path d="M150.453 103.934V53.9336H125.453V103.934H150.453Z" fill="white"/>
<path d="M125.453 203.934V153.934H100.453V203.934H125.453Z" fill="white"/>
<path d="M150.453 203.934V153.934H125.453V203.934H150.453Z" fill="white"/>
<path d="M75.4531 203.934V153.934H50.4531V203.934H75.4531Z" fill="white"/>
<path d="M175.453 53.9336V3.93359L150.453 3.93359V53.9336H175.453Z" fill="white"/>
<path d="M125.453 103.934V3.93359L100.453 3.93359V103.934H125.453Z" fill="white"/>
<path d="M100.453 203.934V103.934H75.4531V203.934H100.453Z" fill="white"/>
</g>
<defs>
<clipPath id="clip0_1025_578">
<rect width="490" height="207" fill="white"/>
</clipPath>
</defs>
</svg>
