<svg width="42" height="42" viewBox="0 0 42 42" fill="none" xmlns="http://www.w3.org/2000/svg">
<rect x="0.197627" y="0.197627" width="41.6047" height="41.6047" rx="20.8024" stroke="white" stroke-width="0.395255"/>
<path d="M19.2931 21.5534C20.3515 22.1636 20.8804 22.4684 21.462 22.469C22.0436 22.4696 22.5725 22.1654 23.6326 21.5569L30.3856 17.6796C30.5354 17.5936 30.6598 17.4697 30.7464 17.3203C30.8329 17.1708 30.8784 17.0012 30.8784 16.8286C30.8784 16.6559 30.8329 16.4863 30.7464 16.3369C30.6598 16.1874 30.5354 16.0635 30.3856 15.9776L23.6297 12.0985C22.5713 11.4917 22.0424 11.1875 21.4614 11.1875C20.8804 11.1875 20.3521 11.4917 19.2943 12.1002L13.4862 15.441L13.4013 15.4902C12.4266 16.0599 11.6168 16.8734 11.0513 17.8506C10.4858 18.8278 10.1841 19.9352 10.1758 21.0642V21.2597C10.1842 22.404 10.494 23.5259 11.0741 24.5124C11.6541 25.4989 12.4838 26.3151 13.4797 26.8788L17.1178 28.9769C19.2375 30.1997 20.2977 30.8111 21.462 30.8111C22.6263 30.8117 23.6859 30.2009 25.8068 28.9798L29.6473 26.7682C30.7092 26.1568 31.2404 25.8514 31.5312 25.3476C31.8238 24.8433 31.8238 24.2313 31.8238 23.0073V20.6418C31.824 20.4773 31.7808 20.3157 31.6987 20.1732C31.6166 20.0307 31.4983 19.9124 31.3559 19.8301C31.2135 19.7478 31.0519 19.7045 30.8874 19.7046C30.7229 19.7046 30.5614 19.748 30.419 19.8303L22.5438 24.3518C22.0155 24.6549 21.7516 24.807 21.4614 24.807C21.1718 24.807 20.9073 24.6555 20.379 24.3524L15.0489 21.2965C14.7815 21.1432 14.6481 21.0666 14.5411 21.0531C14.4222 21.0379 14.3016 21.0623 14.198 21.1226C14.0945 21.1829 14.0137 21.2757 13.9683 21.3866C13.9273 21.4861 13.9285 21.64 13.9297 21.9471C13.9314 22.1736 13.932 22.2865 13.9531 22.3912C14.0005 22.6241 14.1227 22.8359 14.3024 22.9921C14.3825 23.0623 14.4808 23.1185 14.6768 23.232L20.3755 26.5172C20.9056 26.8226 21.1706 26.9753 21.4614 26.9753C21.7522 26.9753 22.0172 26.8232 22.5473 26.5178L29.5326 22.4959C29.714 22.3918 29.8041 22.3397 29.8719 22.3789C29.9398 22.4181 29.9398 22.5223 29.9398 22.7311V23.8036C29.9398 24.1102 29.9398 24.2629 29.8667 24.3887C29.7941 24.5151 29.6613 24.5911 29.3957 24.7444L23.6344 28.0618C22.5736 28.6721 22.0436 28.9775 21.4614 28.9769C20.8793 28.9763 20.3498 28.6709 19.2896 28.0595L13.8992 24.9492L13.8659 24.9299C13.3106 24.6059 12.8494 24.1428 12.5277 23.5862C12.2061 23.0295 12.0351 22.3987 12.0317 21.7558V20.7325C12.0318 20.3777 12.1251 20.0292 12.3024 19.7219C12.4796 19.4145 12.7345 19.1592 13.0415 18.9814C13.313 18.8241 13.6211 18.7412 13.9348 18.741C14.2485 18.7408 14.5567 18.8233 14.8283 18.9802L19.2931 21.5534Z" stroke="white" stroke-width="0.312043" stroke-linecap="round" stroke-linejoin="round"/>
</svg>
