<svg width="42" height="42" viewBox="0 0 42 42" fill="none" xmlns="http://www.w3.org/2000/svg">
<path fill-rule="evenodd" clip-rule="evenodd" d="M21 42C32.598 42 42 32.598 42 21C42 9.40202 32.598 0 21 0C9.40202 0 0 9.40202 0 21C0 32.598 9.40202 42 21 42ZM21.3803 22.5808C20.6803 22.5801 20.0437 22.2132 18.7697 21.4787L13.3957 18.3815C13.0688 18.1927 12.6978 18.0934 12.3202 18.0936C11.9426 18.0939 11.5717 18.1936 11.245 18.3829C10.8755 18.5969 10.5687 18.9043 10.3553 19.2742C10.142 19.6441 10.0296 20.0636 10.0295 20.4907V21.7224C10.0336 22.4962 10.2394 23.2555 10.6266 23.9255C11.0138 24.5954 11.5689 25.1529 12.2373 25.5428L12.2774 25.5661L18.7655 29.3098L18.766 29.3101C20.0417 30.0458 20.679 30.4133 21.3796 30.414C22.0794 30.4147 22.7166 30.0481 23.9899 29.3156L23.9952 29.3126L30.9297 25.3196L30.9363 25.3158C31.2517 25.1338 31.4099 25.0425 31.4967 24.8914C31.5847 24.74 31.5847 24.5562 31.5847 24.1872V22.8963V22.8963C31.5847 22.6449 31.5847 22.5196 31.503 22.4724C31.4217 22.4254 31.3138 22.4873 31.0973 22.6116L31.0945 22.6132L22.6867 27.4541C22.0487 27.8217 21.7296 28.0048 21.3796 28.0048C21.0296 28.0048 20.7106 27.821 20.0726 27.4534L20.0726 27.4534L13.2133 23.4992L13.1923 23.487C12.9703 23.3584 12.8562 23.2924 12.7626 23.2104C12.5464 23.0224 12.3992 22.7675 12.3422 22.4872C12.3172 22.3629 12.3162 22.229 12.3141 21.9641L12.314 21.9527L12.314 21.9374C12.3126 21.5778 12.3119 21.3961 12.3605 21.278C12.4152 21.1445 12.5124 21.0328 12.6371 20.9602C12.7617 20.8876 12.9069 20.8582 13.05 20.8766C13.1784 20.8927 13.3383 20.9844 13.6579 21.1676L13.6612 21.1696L20.0768 24.8478C20.7127 25.2126 21.031 25.395 21.3796 25.395C21.7274 25.395 22.0437 25.2135 22.6739 24.852L22.6825 24.8471L32.1614 19.4047C32.3328 19.3056 32.5273 19.2534 32.7253 19.2534C32.9232 19.2533 33.1177 19.3054 33.2892 19.4045C33.4606 19.5035 33.6029 19.646 33.7018 19.8175C33.8006 19.989 33.8526 20.1835 33.8523 20.3815V23.2287C33.8523 24.702 33.8523 25.4386 33.5002 26.0457C33.1507 26.6512 32.5125 27.0186 31.2378 27.7525L31.2326 27.7555L26.61 30.4176L26.6009 30.4228C24.0541 31.889 22.7801 32.6225 21.3803 32.6218C19.9789 32.6218 18.7028 31.8859 16.1514 30.414L11.7725 27.8886C10.5738 27.2101 9.57505 26.2277 8.87689 25.0403C8.17874 23.853 7.80581 22.5026 7.79567 21.1252V20.89C7.80566 19.531 8.1688 18.1981 8.84945 17.0218C9.5301 15.8456 10.5049 14.8665 11.6781 14.1807L11.7802 14.1216L18.7712 10.1004L18.775 10.0982C20.0457 9.36727 20.681 9.0018 21.3796 9.0018C22.0768 9.0018 22.7116 9.36572 23.9776 10.0915L23.9895 10.0983L32.1213 14.7674C32.3016 14.8708 32.4513 15.02 32.5555 15.1998C32.6596 15.3797 32.7145 15.5838 32.7145 15.7917C32.7145 15.9995 32.6596 16.2037 32.5555 16.3835C32.4513 16.5634 32.3016 16.7125 32.1213 16.816L23.993 21.4829L23.9854 21.4873C22.7144 22.2168 22.0789 22.5815 21.3803 22.5808Z" fill="#D9D9D9"/>
</svg>
