<svg width="25" height="25" viewBox="0 0 25 25" fill="none" xmlns="http://www.w3.org/2000/svg">
<rect x="0.0846974" y="0.0846974" width="24.8306" height="24.8306" rx="12.4153" stroke="white" stroke-width="0.169395"/>
<path d="M11.7685 12.7374C12.2221 12.999 12.4488 13.1296 12.698 13.1299C12.9473 13.1301 13.174 12.9997 13.6283 12.7389L16.5225 11.0772C16.5866 11.0404 16.64 10.9873 16.677 10.9232C16.7141 10.8592 16.7337 10.7865 16.7337 10.7125C16.7337 10.6385 16.7141 10.5658 16.677 10.5018C16.64 10.4378 16.5866 10.3846 16.5225 10.3478L13.6271 8.68534C13.1735 8.42531 12.9468 8.29492 12.6978 8.29492C12.4488 8.29492 12.2224 8.42531 11.769 8.68609L9.27982 10.1179L9.24346 10.1389C8.82572 10.3831 8.47864 10.7317 8.23629 11.1505C7.99394 11.5693 7.86464 12.044 7.86108 12.5278V12.6116C7.86469 13.102 7.99748 13.5828 8.24606 14.0056C8.49465 14.4284 8.85025 14.7782 9.27706 15.0198L10.8362 15.9189C11.7447 16.443 12.199 16.705 12.698 16.705C13.197 16.7053 13.6511 16.4435 14.5601 15.9202L16.206 14.9724C16.6611 14.7103 16.8888 14.5794 17.0134 14.3635C17.1388 14.1474 17.1388 13.8851 17.1388 13.3606V12.3468C17.1389 12.2763 17.1204 12.207 17.0852 12.1459C17.05 12.0849 16.9993 12.0341 16.9383 11.9989C16.8772 11.9636 16.808 11.9451 16.7375 11.9451C16.667 11.9451 16.5978 11.9637 16.5367 11.999L13.1617 13.9368C12.9352 14.0667 12.8222 14.1319 12.6978 14.1319C12.5737 14.1319 12.4603 14.0669 12.2339 13.937L9.94957 12.6274C9.83498 12.5617 9.77781 12.5288 9.73192 12.523C9.68098 12.5165 9.6293 12.527 9.58491 12.5528C9.54052 12.5787 9.5059 12.6184 9.48644 12.666C9.46889 12.7086 9.46939 12.7746 9.46989 12.9062C9.47064 13.0032 9.47089 13.0516 9.47992 13.0965C9.50023 13.1963 9.55264 13.2871 9.62962 13.354C9.66397 13.3841 9.70609 13.4082 9.7901 13.4568L12.2324 14.8648C12.4596 14.9957 12.5732 15.0611 12.6978 15.0611C12.8224 15.0611 12.936 14.9959 13.1632 14.865L16.1569 13.1414C16.2346 13.0968 16.2732 13.0744 16.3023 13.0912C16.3314 13.108 16.3314 13.1527 16.3314 13.2422V13.7018C16.3314 13.8332 16.3314 13.8987 16.3 13.9526C16.2689 14.0067 16.212 14.0393 16.0982 14.105L13.6291 15.5268C13.1745 15.7883 12.9473 15.9192 12.6978 15.9189C12.4483 15.9187 12.2214 15.7878 11.767 15.5258L9.45685 14.1928L9.44256 14.1845C9.20458 14.0457 9.00692 13.8472 8.86907 13.6086C8.73121 13.3701 8.65793 13.0997 8.65646 12.8242V12.3856C8.65651 12.2336 8.69652 12.0842 8.77248 11.9525C8.84843 11.8208 8.95768 11.7113 9.08925 11.6351C9.20559 11.5678 9.33763 11.5322 9.47208 11.5321C9.60652 11.5321 9.73861 11.5674 9.85504 11.6346L11.7685 12.7374Z" stroke="white" stroke-width="0.133733" stroke-linecap="round" stroke-linejoin="round"/>
</svg>
