<svg width="20" height="20" viewBox="0 0 20 20" fill="none" xmlns="http://www.w3.org/2000/svg">
<path d="M10.0001 10.7918L5.47925 14.021C5.20147 14.2154 4.91341 14.2396 4.61508 14.0935C4.31675 13.9474 4.1673 13.701 4.16675 13.3543C4.16675 13.2154 4.19814 13.0835 4.26091 12.9585C4.32369 12.8335 4.41036 12.7362 4.52091 12.6668L10.0001 8.75014L15.4792 12.6668C15.5904 12.7362 15.6773 12.8335 15.7401 12.9585C15.8029 13.0835 15.834 13.2154 15.8334 13.3543C15.8334 13.6876 15.6842 13.9307 15.3859 14.0835C15.0876 14.2362 14.7992 14.2154 14.5209 14.021L10.0001 10.7918ZM10.0001 5.83347L5.47925 9.06264C5.20147 9.25708 4.91341 9.28153 4.61508 9.13597C4.31675 8.99041 4.1673 8.74347 4.16675 8.39514C4.16675 8.25625 4.19814 8.1243 4.26091 7.9993C4.32369 7.8743 4.41036 7.77708 4.52091 7.70764L10.0001 3.7918L15.4792 7.70847C15.5904 7.77791 15.6773 7.87514 15.7401 8.00014C15.8029 8.12514 15.834 8.25708 15.8334 8.39597C15.8334 8.7293 15.6842 8.97236 15.3859 9.12514C15.0876 9.27791 14.7992 9.25708 14.5209 9.06264L10.0001 5.83347Z" fill="white"/>
</svg>
