<svg width="21" height="27" viewBox="0 0 21 27" fill="none" xmlns="http://www.w3.org/2000/svg">
<path d="M19.9581 25.9999V26.3999H20.3581V25.9999H19.9581ZM1 25.9999H0.6V26.3999H1V25.9999ZM1 10.4604V10.0604H0.6V10.4604H1ZM1.00002 10.4604V10.8604H1.39926L1.40002 10.4612L1.00002 10.4604ZM19.9581 10.4604L19.5581 10.4612L19.5589 10.8604H19.9581V10.4604ZM19.9581 10.4604H20.3581V10.0604H19.9581V10.4604ZM19.5581 10.4787V25.9999H20.3581V10.4787H19.5581ZM19.9581 25.5999H1V26.3999H19.9581V25.5999ZM1.4 25.9999V10.4787H0.6V25.9999H1.4ZM1.4 10.4787V10.4604H0.6V10.4787H1.4ZM1 10.8604H1.00002V10.0604H1V10.8604ZM1.40002 10.4612C1.40948 5.45522 5.47068 1.4 10.4791 1.4V0.6C5.02938 0.6 0.610315 5.01253 0.600018 10.4596L1.40002 10.4612ZM10.4791 1.4C15.4875 1.4 19.5487 5.45522 19.5581 10.4612L20.3581 10.4596C20.3478 5.01253 15.9288 0.6 10.4791 0.6V1.4ZM19.9581 10.8604H19.9581V10.0604H19.9581V10.8604ZM19.5581 10.4604V10.4787H20.3581V10.4604H19.5581Z"  stroke="white"
                    stroke-width="0.8"/>
</svg>
