<svg width="16" height="16" viewBox="0 0 16 16" fill="none" xmlns="http://www.w3.org/2000/svg">
<path d="M5.56724 9.07617L1.3064 13.337" stroke="#5F5F5F"/>
<path d="M6.95469 10.4648L2.69385 14.7257" stroke="#5F5F5F"/>
<path d="M2.69381 14.7246C2.50983 14.9086 2.26029 15.012 2.0001 15.012C1.73991 15.012 1.49038 14.9086 1.3064 14.7246" stroke="#5F5F5F" stroke-linecap="round" stroke-linejoin="round"/>
<path d="M1.30639 13.3379C1.1224 13.5219 1.01904 13.7714 1.01904 14.0316C1.01904 14.2918 1.1224 14.5413 1.30639 14.7253" stroke="#5F5F5F" stroke-linecap="round" stroke-linejoin="round"/>
<path d="M15.0411 5.40496C15.0411 5.98471 14.9269 6.55878 14.7051 7.0944C14.4832 7.63002 14.158 8.11669 13.7481 8.52664C13.3381 8.93658 12.8515 9.26177 12.3158 9.48363C11.7802 9.70549 11.2061 9.81968 10.6264 9.81968C10.0466 9.81968 9.47257 9.70549 8.93695 9.48363C8.40133 9.26177 7.91466 8.93658 7.50471 8.52664C7.09477 8.11669 6.76958 7.63002 6.54772 7.0944C6.32586 6.55878 6.21167 5.98471 6.21167 5.40496C6.21167 4.2341 6.67679 3.1112 7.50471 2.28328C8.33263 1.45536 9.45553 0.990234 10.6264 0.990234C11.2061 0.990234 11.7802 1.10442 12.3158 1.32629C12.8515 1.54815 13.3381 1.87333 13.7481 2.28328C14.158 2.69322 14.4832 3.1799 14.7051 3.71551C14.9269 4.25113 15.0411 4.82521 15.0411 5.40496Z" stroke="#5F5F5F" stroke-linecap="round" stroke-linejoin="round"/>
<path d="M5.56714 9.07617L6.95455 10.4636" stroke="#5F5F5F" stroke-linecap="round" stroke-linejoin="round"/>
<path d="M6.26099 9.77108L7.50473 8.52734" stroke="#5F5F5F" stroke-linecap="round" stroke-linejoin="round"/>
<path d="M4.38306 10.2617L5.77047 11.6491" stroke="#5F5F5F" stroke-linecap="round" stroke-linejoin="round"/>
<path d="M13.0791 5.4043C13.0791 6.05477 12.8207 6.67861 12.3607 7.13856C11.9008 7.59852 11.2769 7.85692 10.6265 7.85692" stroke="#5F5F5F" stroke-linecap="round" stroke-linejoin="round"/>
</svg>
